<?xml version="1.0" standalone="no"?>
<!DOCTYPE svg PUBLIC "-//W3C//DTD SVG 20010904//EN"
 "http://www.w3.org/TR/2001/REC-SVG-20010904/DTD/svg10.dtd">
<svg version="1.0" xmlns="http://www.w3.org/2000/svg"
 width="350.000000pt" height="350.000000pt" viewBox="0 0 350.000000 350.000000"
 preserveAspectRatio="xMidYMid meet">
<metadata>
Created by potrace 1.14, written by Peter Selinger 2001-2017
</metadata>
<g transform="translate(0.000000,350.000000) scale(0.100000,-0.100000)"
fill="#000000" stroke="none">
<path d="M1598 3483 c12 -2 30 -2 40 0 9 3 -1 5 -23 4 -22 0 -30 -2 -17 -4z"/>
<path d="M1668 3483 c7 -3 16 -2 19 1 4 3 -2 6 -13 5 -11 0 -14 -3 -6 -6z"/>
<path d="M1868 3483 c12 -2 30 -2 40 0 9 3 -1 5 -23 4 -22 0 -30 -2 -17 -4z"/>
<path d="M1508 3473 c12 -2 32 -2 45 0 12 2 2 4 -23 4 -25 0 -35 -2 -22 -4z"/>
<path d="M1948 3473 c12 -2 32 -2 45 0 12 2 2 4 -23 4 -25 0 -35 -2 -22 -4z"/>
<path d="M1443 3463 c9 -2 23 -2 30 0 6 3 -1 5 -18 5 -16 0 -22 -2 -12 -5z"/>
<path d="M2030 3466 c0 -2 9 -6 20 -9 11 -3 18 -1 14 4 -5 9 -34 13 -34 5z"/>
<path d="M1388 3453 c6 -2 18 -2 25 0 6 3 1 5 -13 5 -14 0 -19 -2 -12 -5z"/>
<path d="M2088 3453 c7 -3 16 -2 19 1 4 3 -2 6 -13 5 -11 0 -14 -3 -6 -6z"/>
<path d="M1272 3428 c-40 -11 -71 -22 -69 -25 4 -4 158 36 166 43 9 8 -27 2
-97 -18z"/>
<path d="M2185 3429 c39 -10 74 -17 80 -16 11 4 -118 37 -137 36 -7 0 19 -9
57 -20z"/>
<path d="M1145 3385 c-25 -12 -26 -14 -5 -9 28 7 60 23 45 23 -5 0 -23 -6 -40
-14z"/>
<path d="M2370 3374 c0 -7 52 -25 57 -20 2 2 -10 8 -26 14 -17 6 -31 9 -31 6z"/>
<path d="M985 3316 c-363 -179 -646 -467 -816 -832 -61 -128 -45 -113 20 21
181 368 454 638 826 816 55 27 95 48 90 49 -6 0 -60 -24 -120 -54z"/>
<path d="M2470 3330 c19 -11 40 -19 45 -19 6 0 -6 8 -25 19 -19 11 -39 19 -45
19 -5 0 6 -8 25 -19z"/>
<path d="M2550 3293 c0 -4 18 -16 39 -26 78 -36 250 -159 340 -244 35 -34 47
-41 36 -22 -11 17 -181 155 -242 197 -82 54 -173 105 -173 95z"/>
<path d="M1223 3023 c20 -2 54 -2 75 0 20 2 3 4 -38 4 -41 0 -58 -2 -37 -4z"/>
<path d="M2125 3021 c50 -5 108 -14 129 -20 22 -6 42 -9 44 -6 10 10 -82 26
-168 30 l-95 4 90 -8z"/>
<path d="M1143 3013 c9 -2 23 -2 30 0 6 3 -1 5 -18 5 -16 0 -22 -2 -12 -5z"/>
<path d="M1405 3000 c39 -10 72 -16 73 -15 6 6 -100 35 -122 34 -12 0 11 -8
49 -19z"/>
<path d="M1955 3010 c-13 -6 -5 -7 25 -3 25 3 47 7 49 9 9 8 -55 2 -74 -6z"/>
<path d="M1098 3003 c7 -3 16 -2 19 1 4 3 -2 6 -13 5 -11 0 -14 -3 -6 -6z"/>
<path d="M983 2960 c-86 -45 -137 -88 -202 -170 -41 -51 -91 -149 -91 -174 1
-6 10 12 22 39 57 133 160 241 291 305 45 22 77 40 70 40 -6 0 -47 -18 -90
-40z"/>
<path d="M1834 2960 c-44 -22 -94 -53 -113 -70 -18 -16 -36 -30 -39 -30 -3 0
-23 15 -46 33 -44 36 -127 87 -141 87 -5 0 18 -16 50 -36 33 -19 78 -50 100
-68 l40 -33 45 39 c24 21 80 57 124 79 45 21 76 39 70 39 -7 0 -47 -18 -90
-40z"/>
<path d="M2368 2957 c161 -82 282 -240 316 -412 8 -38 15 -59 15 -45 4 113
-107 312 -222 400 -51 38 -146 90 -163 90 -5 -1 19 -15 54 -33z"/>
<path d="M2991 2963 c8 -13 17 -23 21 -23 3 0 39 -40 79 -90 40 -49 75 -90 77
-90 5 0 1 6 -75 100 -68 84 -126 143 -102 103z"/>
<path d="M3198 2708 c31 -57 84 -138 89 -138 5 0 -16 36 -70 123 -33 53 -46
63 -19 15z"/>
<path d="M681 2584 c0 -11 3 -14 6 -6 3 7 2 16 -1 19 -3 4 -6 -2 -5 -13z"/>
<path d="M666 2538 c-3 -13 -5 -61 -4 -108 l1 -85 7 105 c7 112 6 124 -4 88z"/>
<path d="M3326 2480 c3 -14 10 -29 15 -34 14 -16 10 6 -7 34 l-15 25 7 -25z"/>
<path d="M2703 2435 c0 -22 2 -30 4 -17 2 12 2 30 0 40 -3 9 -5 -1 -4 -23z"/>
<path d="M3350 2425 c0 -5 5 -17 10 -25 5 -8 10 -10 10 -5 0 6 -5 17 -10 25
-5 8 -10 11 -10 5z"/>
<path d="M111 2349 c-6 -18 -9 -34 -7 -36 2 -2 9 10 15 28 6 18 9 34 7 36 -2
2 -9 -10 -15 -28z"/>
<path d="M2692 2355 c0 -16 2 -22 5 -12 2 9 2 23 0 30 -3 6 -5 -1 -5 -18z"/>
<path d="M3370 2375 c0 -5 5 -17 10 -25 5 -8 10 -10 10 -5 0 6 -5 17 -10 25
-5 8 -10 11 -10 5z"/>
<path d="M667 2316 c4 -20 -3 -27 -41 -47 -94 -46 -208 -198 -205 -270 1 -20
2 -19 8 6 25 102 113 214 201 256 38 18 50 29 50 46 0 12 -4 24 -9 27 -4 3 -6
-5 -4 -18z"/>
<path d="M2758 2300 c145 -27 279 -152 312 -293 6 -25 8 -27 9 -8 2 39 -55
143 -106 195 -60 60 -148 106 -216 111 l-52 4 53 -9z"/>
<path d="M70 2220 c-12 -45 -20 -84 -17 -86 2 -2 14 33 26 77 12 45 20 84 17
86 -2 2 -13 -33 -26 -77z"/>
<path d="M3406 2275 c2 -16 13 -57 24 -90 11 -33 17 -44 13 -25 -3 19 -14 60
-24 90 -10 30 -16 42 -13 25z"/>
<path d="M44 2105 c-3 -8 -4 -20 -2 -27 3 -7 7 -1 10 15 6 29 1 36 -8 12z"/>
<path d="M3452 2095 c0 -16 2 -22 5 -12 2 9 2 23 0 30 -3 6 -5 -1 -5 -18z"/>
<path d="M32 2040 c0 -14 2 -19 5 -12 2 6 2 18 0 25 -3 6 -5 1 -5 -13z"/>
<path d="M3461 2044 c0 -11 3 -14 6 -6 3 7 2 16 -1 19 -3 4 -6 -2 -5 -13z"/>
<path d="M1000 1810 l0 -220 70 0 70 0 0 -30 0 -30 -207 0 c-113 0 -204 -3
-201 -6 4 -3 94 -5 202 -4 169 0 196 -2 196 -15 0 -12 -13 -15 -65 -15 -36 0
-65 -3 -66 -7 -1 -5 -2 -102 -3 -216 -1 -237 -5 -225 82 -222 l52 2 0 -48 0
-49 -65 0 c-45 0 -65 -4 -66 -12 -6 -71 -3 -416 4 -425 14 -20 1480 -19 1496
1 8 9 11 77 9 222 l-3 209 -67 3 c-38 2 -68 7 -69 12 -1 6 -1 21 -1 35 0 52
-1 51 62 50 36 -1 65 4 71 11 6 7 8 93 7 220 l-3 209 -67 3 c-51 2 -68 7 -68
17 0 12 35 15 203 18 l202 2 -207 3 -208 2 0 30 0 30 70 0 70 0 0 220 0 220
-750 0 -750 0 0 -220z m255 45 c14 -13 25 -33 25 -43 0 -29 -38 -72 -64 -72
-34 0 -76 37 -76 66 0 30 41 74 70 74 12 0 32 -11 45 -25z m204 -1 c12 -15 21
-34 21 -44 0 -34 -39 -70 -75 -70 -36 0 -75 36 -75 70 0 34 39 70 75 70 24 0
39 -7 54 -26z m-204 -539 c14 -13 25 -33 25 -43 0 -29 -38 -72 -64 -72 -34 0
-76 37 -76 66 0 30 41 74 70 74 12 0 32 -11 45 -25z m204 -1 c12 -15 21 -34
21 -44 0 -34 -39 -70 -75 -70 -36 0 -75 36 -75 70 0 34 39 70 75 70 24 0 39
-7 54 -26z m-204 -539 c14 -13 25 -33 25 -43 0 -31 -38 -72 -68 -72 -33 0 -72
36 -72 67 0 30 42 73 70 73 12 0 32 -11 45 -25z m193 8 c52 -44 24 -123 -43
-123 -36 0 -75 36 -75 70 0 10 9 29 21 44 24 31 67 35 97 9z"/>
<path d="M23 1970 c0 -25 2 -35 4 -22 2 12 2 32 0 45 -2 12 -4 2 -4 -23z"/>
<path d="M3472 1975 c0 -16 2 -22 5 -12 2 9 2 23 0 30 -3 6 -5 -1 -5 -18z"/>
<path d="M3077 1893 c-9 -142 -87 -261 -210 -323 -33 -16 -54 -30 -46 -30 28
0 115 59 162 109 65 69 98 146 104 244 3 42 4 77 1 77 -3 0 -8 -35 -11 -77z"/>
<path d="M413 1915 c0 -27 2 -38 4 -22 2 15 2 37 0 50 -2 12 -4 0 -4 -28z"/>
<path d="M13 1885 c0 -22 2 -30 4 -17 2 12 2 30 0 40 -3 9 -5 -1 -4 -23z"/>
<path d="M3482 1890 c0 -19 2 -27 5 -17 2 9 2 25 0 35 -3 9 -5 1 -5 -18z"/>
<path d="M422 1835 c0 -16 2 -22 5 -12 2 9 2 23 0 30 -3 6 -5 -1 -5 -18z"/>
<path d="M450 1747 c0 -11 48 -85 68 -105 27 -27 88 -72 97 -72 4 0 -10 13
-31 29 -45 33 -71 61 -108 116 -14 22 -26 36 -26 32z"/>
<path d="M13 1615 c0 -22 2 -30 4 -17 2 12 2 30 0 40 -3 9 -5 -1 -4 -23z"/>
<path d="M3482 1610 c0 -19 2 -27 5 -17 2 9 2 25 0 35 -3 9 -5 1 -5 -18z"/>
<path d="M23 1530 c0 -25 2 -35 4 -22 2 12 2 32 0 45 -2 12 -4 2 -4 -23z"/>
<path d="M644 1556 c11 -9 27 -16 35 -15 14 0 14 1 1 6 -8 3 -24 10 -35 15
-20 9 -20 9 -1 -6z"/>
<path d="M3470 1539 c0 -19 -4 -51 -9 -71 -5 -21 -5 -38 -1 -38 10 0 25 128
16 137 -3 4 -6 -9 -6 -28z"/>
<path d="M31 1474 c-3 -30 57 -279 65 -271 3 2 -7 46 -20 98 -13 52 -28 114
-34 139 -5 25 -10 40 -11 34z"/>
<path d="M3432 1328 c-12 -50 -21 -93 -18 -95 2 -2 14 37 26 87 12 50 21 93
18 95 -2 2 -14 -37 -26 -87z"/>
<path d="M3396 1205 c-3 -9 -6 -22 -5 -28 0 -7 5 -1 10 12 5 13 8 26 5 28 -2
2 -6 -3 -10 -12z"/>
<path d="M106 1170 c3 -14 11 -32 16 -40 6 -10 7 -7 2 10 -3 14 -11 32 -16 40
-6 10 -7 7 -2 -10z"/>
<path d="M3372 1135 c-7 -14 -12 -31 -12 -38 1 -7 7 3 16 22 17 39 13 54 -4
16z"/>
<path d="M130 1106 c0 -15 76 -171 119 -244 122 -209 327 -424 542 -570 54
-36 251 -142 265 -142 5 0 -36 24 -91 53 -354 187 -594 430 -767 776 -38 74
-68 131 -68 127z"/>
<path d="M3318 1008 c-19 -40 -54 -104 -77 -142 -23 -38 -40 -71 -37 -73 7 -8
121 196 146 263 19 48 2 23 -32 -48z"/>
<path d="M3133 703 c-32 -43 -97 -118 -145 -168 -101 -103 -118 -129 -27 -40
80 79 250 285 235 285 -3 0 -31 -35 -63 -77z"/>
<path d="M2810 379 c-122 -97 -276 -185 -428 -244 -39 -16 -70 -30 -68 -32 7
-7 161 58 256 109 100 53 218 133 285 192 62 54 38 42 -45 -25z"/>
<path d="M1080 140 c8 -5 20 -10 25 -10 6 0 3 5 -5 10 -8 5 -19 10 -25 10 -5
0 -3 -5 5 -10z"/>
<path d="M1130 122 c8 -5 26 -13 40 -16 17 -5 20 -4 10 2 -8 5 -26 13 -40 16
-17 5 -20 4 -10 -2z"/>
<path d="M1200 97 c0 -7 161 -50 166 -44 3 2 -24 12 -58 21 -35 8 -73 19 -85
22 -13 4 -23 4 -23 1z"/>
<path d="M2150 64 c-69 -17 -119 -33 -112 -33 16 -1 210 45 242 58 44 17 -1 9
-130 -25z"/>
<path d="M1405 40 c17 -4 41 -8 55 -8 22 0 22 1 -5 8 -16 4 -41 8 -55 8 -22 0
-22 -1 5 -8z"/>
<path d="M1965 29 c-30 -7 -30 -7 7 -8 20 0 39 3 42 7 6 10 -8 10 -49 1z"/>
<path d="M1508 23 c12 -2 32 -2 45 0 12 2 2 4 -23 4 -25 0 -35 -2 -22 -4z"/>
<path d="M1598 13 c12 -2 32 -2 45 0 12 2 2 4 -23 4 -25 0 -35 -2 -22 -4z"/>
<path d="M1858 13 c12 -2 32 -2 45 0 12 2 2 4 -23 4 -25 0 -35 -2 -22 -4z"/>
</g>
</svg>
